<?xml version="1.0" encoding="utf-8"?>
<!-- Generator: Adobe Illustrator 22.1.0, SVG Export Plug-In . SVG Version: 6.00 Build 0)  -->
<svg version="1.1" id="Layer_1" xmlns="http://www.w3.org/2000/svg" xmlns:xlink="http://www.w3.org/1999/xlink" x="0px" y="0px"
	 viewBox="0 0 1067.9 298.5" style="enable-background:new 0 0 1067.9 298.5;" xml:space="preserve">
<g>
	<g>
		<path d="M140.4,192.6c-5.8,6.4-3,13.9-3.2,20.7c0,1.9,1.5,2.9,3.2,3c2.1,0.2,4.9,0,5.1-2.2C146.2,206.7,149.9,198.3,140.4,192.6z
			 M11.7,205.2c0.2-4.4,1.4-11.2-4.4-11.4c-7.3-0.1-4.2,7.4-5.4,12.5c1.7,3-2.3,10.2,5.2,9.8C14,215.9,11.5,209.3,11.7,205.2z
			 M73.6,153.5c-3.9,6.9-6.3,54.7-3.6,60.2c1.7,3.6,4.4,3,7.1,1.8C80.6,193.1,79,161,73.6,153.5z M1070.1,267.8
			c1.9-8.9-0.7-18.8,3.9-26.1c-6.9-11.2-16.7-9.1-25.9-9c-9.5,0.1-18.9,0.4-26-7.9c4.9-1.9,5-11,9.9-10.4
			c11.5,1.5,16.1-7.7,22.9-13.9c1.5-1.4,3-3,5.1-1.5c4.7,2.7-1.6,9.6,4.3,12.4c3.9-4.2,4.4-11.1,11.2-12.3
			c-6.2-9.1-14.5-9.2-23-10.3c1.4-10.9-4-17.6-11.9-22.8c-6.1-4-9.5,0.9-13.2,4.8c-2.3-3.2,0.7-8.5-5.6-10.5
			c-4.2,8.9-13.8,11.9-20.4,19c-5.2,3.5-5.6,8.2-1.9,12.8c2.6,3.2,2.7,5.5,0.4,8.8c-6.1,8.7-3.1,15.7,4.2,21.6
			c2.1,8.7-2.1,14.6-7.9,18.6c6.5,18.9,4.8,36.1-3.4,53c-4.6,0.1-9.5,1.8-13.7-1.2c-2.6-6.9,0.9-14.3-2.6-20.3
			c-5.1-3.1-11,0.6-16.3-3.7c0-40.8,0.1-82.1,0-123.4c-0.1-16.1,3.2-33.1-11-46.4c0,0,0.1,0,0.1,0c-0.1-0.1-0.7-0.2-1.3-0.2
			c-9.8,0-19.6,0-29.4-0.1c-17.9,0-22.6,5-22.6,24.8c-0.1,40.9,0,81.8-0.1,122.6c0,3.7,1.8,9.3-1.8,10.9c-9.7,4.2-6.6,12.5-7.1,19.8
			c-0.4,5.6,1,11.5-2,18.8c-3.8-6.2-2.7-11-2.7-15.4c-0.1-27.8-0.3-55.7,0.1-83.5c0.1-8.5-2.6-11.7-10.4-12
			c-16.3-0.7-32.3,1.6-48.7,4c-1.2,33,0.8,65.3-1.1,97.3c-1.9,0-3.8-0.1-5.7-0.1V125.5c-17,1-31.6,2.3-46.2,2.7
			c-9.7,0.2-13.3,3.8-13.1,14.7c0.6,38.7,0.3,77.4,0.2,116.1c0,3.6,1.3,7.7-2.7,12.8c0-11.9-0.5-21.9,0.1-31.8
			c0.5-8.4-3.1-12.4-10.3-12.6c-12.2-0.4-24.5-0.3-36.7,0c-7.7,0.2-11.7,4.1-11,13.2c0.7,9.7,0.2,19.5,0.2,29.2
			c-4.7-4.7-1.5-10.9-5.2-16.2c-5.3,0.6-10.9,1.8-16.5,1.7c-8.7-0.2-11.5,3.9-10.9,12.7c0.5,8.5,0.1,17.1,0.1,26.1h-18.9
			c1.1-5.2,7.5-6.8,6.2-12.6c-3.2-5.2-9.8-2-14-5.9c1.6-3.6,6.2-4.7,6.7-9.3c-3.2-5.7-10.7-2.7-14.2-6.6c-0.5-6.1,6-6.9,5.7-12.7
			c-8.4-1.5-10.2-9.1-11.8-16.6c-1.1-5-1.4-10.3-1.6-15.5c-1.6-55.6-3.2-111.2-4.6-166.8c-0.3-9.8-1.9-19-6.9-28.9
			c-7.9,17.9-6.4,35.5-7,52.7c-1.6,46.9-2.2,93.9-3.9,140.8c-0.5,13.1,0.7,27.9-13.7,35.4c-0.2,5.1,7.7,5.6,5.8,11.7
			c-4,3.8-10.8,0.9-13.9,6.3c-0.5,5.3,6.2,5.5,6,10.4c-4.5,2.8-11.1-0.4-13.8,5.5c-0.6,5.7,5.4,6.8,5.9,12h-15.4
			c-4.3-18.8-19.2-5.7-28.8-12c0-7.5-5.7-10.5-13-11c0-39.3,0-77.6,0-115.8c0-17.3-3.8-21.5-19.7-20.5c-10.2,0.6-20.3,3.2-30.4,2.9
			c-11.7-0.4-14,4.9-13.9,16.2c0.6,43.5,0.3,87,0.1,130.5c0,4.3,2.6,10.7-7.7,12.8c6.5-23.5-7.8-43-6.1-65.4
			c1.6-20.3,0.4-40.9,0.3-61.3c0-4.1,1.3-9.8-4.5-10.5c-13.1-1.4-26.3-2.1-40.6-3.1V272c-7.6,2.1-11.5,1.3-11.5-7.8
			c0-9,3.6-19.8-2-26.5c-5.2-6.3-5.2-12.1-5.2-18.8c-0.1-36.1,0-72.2-0.1-108.3c0-4.9,1.5-11.1-6.2-11.5
			c-14.3-0.9-28.5-2.5-42.8-2.7c-10.6-0.1-16.7,4.3-16.3,18c1,32.6,0.3,65.2,0.3,97.9c0,24.8,0,49.6,0,74.4c0,5.9,0.1,11.9-9.2,8
			v-46.1H252c3.4-33.7-5.3-63.2-13.5-95.3c-1.8,3.5-2.9,4.8-3.2,6.3c-6.6,30.4-14.1,60.7-11.7,92.5c0.7,9.5,0,19.1,0.1,28.7
			c0,3.9-0.4,7.1-5.1,6.7c-4.2-0.3-3.9-3.6-3.9-6.6c-0.1-10.4-0.1-20.9-0.1-31.3c0-5.2-0.7-9.6-6.3-11c-12.2-3.2-25-4.5-35.9,1.9
			c-8.2,4.8-2.3,15.9-3.7,24c-0.5,3-0.1,6.1-0.1,9.1c0,3.2-0.2,6.7-3.9,6.8c-6.8,0.1-4.6,6.8-8.1,12.1c0-32.3,0.6-62.7-0.3-93
			c-0.4-14,1.2-29.2-8.9-41.1c-1.9-4-3.8-8-5.7-11.9c-19.7,21-14,48.9-16.7,74.6c-5,0-8.2,0.4-11.4-0.1
			c-18.1-2.7-18.1-2.8-18.1-22.6c0-15.6-0.3-31.2,0.1-46.8c0.3-13.2,1.6-27.3,0.5-39.6c-1.6-17.1-5.9-35.1-11.5-52
			c-0.1-0.3-0.6-0.5-1-0.7C78,48.3,77.9,35.7,75,23.8c-4.5,1.7-3.6,5.2-3.9,8c-0.9,9.7-2.6,18.9-7.6,27.7
			c-6.8,11.7-1.8,26.7-9.5,39.2c-5.1,8.3-0.6,19.8-0.4,29.8c0.4,24.8-0.2,49.6-0.4,74.3c-0.1,14.5-5.5,18.8-22.7,18.5
			c-13-0.2-8.5-10.8-8.3-17.2c0.7-21.3-1.5-41.2-15.9-58.1c-2.5,3.2-1.8,6.6-1.7,9.9C-7.4,160-5.9,171.5-6.7,180.6
			c-3.2,35.8,1,71.8-3,107.6c-0.3,2.5-0.6,5-0.8,7.2c-3.6,1.1-6.5,1.9-12,3.6c7.3,0.9,11.7,1.9,16.5-1c1.9-32.6,1.1-65.5,1.6-98.3
			c0.2-14.7,1.2-29.9,9.6-42.8c4.1,1.9,9,3.4,9.2,9.1c0.7,13.3,5.5,25.9,4.8,39.5c-1.1,20.2,1.5,21.2,21,18.5
			c12.7-1.8,17.2-7.4,16.3-21.1c-1.1-17.7-0.4-35.5-0.2-53.3c0.2-17.3-2.9-36.1,2.3-51.6c5.9-17.8,2.7-38.6,17.5-54.5
			c-1.5,7.3,0.5,13.4,6.7,16.8c5,11.7-1.4,25.7,6.9,37.6c1.5,2.2,3.1,11.1,3.1,17.3c-0.3,32.4-0.2,64.9-0.3,97.3
			c0,6,3.7,8.5,8.1,9.6c5.5,1.4,11.2,2.1,16.9,2.7c8.3,0.9,13.4-2,12.3-12.3c-1.5-14.8,1.3-29.2,3.4-43.7c1.2-8.2,4.8-12.6,13.2-9.2
			c0.9,3.3,1.7,6.6,2.6,9.9c6.6,26,1.9,52.4,3.1,78.6c0.7,14.3,1.3,28.5,2,42.8c0.1,2.5-0.4,5.5,2.7,6.4c2,0.6,4.4,0.7,5.2-1.8
			c3.5-11.6,12.4-20.3,10.5-34.9c-2.4-18.6,0.6-20.1,18.6-20.5c2.4-0.1,4.9,0,7.3,0.1c8.4,0.6,13.6,3.7,12.3,14.4
			c-0.9,7.3-0.2,14.8-0.2,22.2c0,16.4,0.7,17,16.9,12.8c1.4-40-4.3-81.1,11-120.6c8.1,27.5,13,54.8,11.1,84.1h49.8
			c3.1,15.8-0.8,31.2,2.4,45.9c4.9,0.9,9.3,2.2,14-1.9v-13.7c0-56.1,0.3-112.2-0.3-168.3c-0.1-10.5,4.1-15.1,12.2-14.9
			c15.4,0.2,30.7,2,46.7,3.2c0,41.1,0,80.6,0,120.2c0,3.9-0.8,9.9,1,11.2c9.6,7,5.4,17.1,6.3,26c0.6,5-1.4,10.4,1.9,15.2
			c4.9,0.9,9.6,1.5,16.2-1V160.8c13.9,1.4,26,0,38.4,4c0,22.5,1.4,44.3-0.4,65.9c-1.9,23.5,10.4,44.6,6.2,67.4
			c5.6,2.1,9.4,2.8,14.3-0.9V142.2c15.3-1.4,29.5-3.2,43.6-3.9c8.9-0.4,13.5,3.6,13.3,14.9c-0.8,36.5-0.3,73.1-0.2,109.6
			c0,4.5-1.9,11.9,3.3,12.5c7.4,0.9,8.7,5.8,10.1,11.8h25.6c3.5,19.5,16.6,7.8,29.2,12c-4-7.9-6.1-12.2-8.3-16.6
			c16.2-2,16.7-2.9,9.1-16c8.6-1.4,16.3-3.3,8.8-15.2c-0.4-0.7-0.4-2.7,0.1-3.1c9.7-8.1,9.6-19.9,9.9-31.2
			c1.7-56.5,3.2-113,4.6-169.4c0.1-5.1,0.1-10.2,3.5-14.6c2.4,4.9,3,10,3.1,15.3c1,48.7,2.1,97.4,3.3,146c0.3,11.7,0.4,23.6,2.4,35
			c0.4,2.2,0.6,4.7,0.9,7.2c0.1,0.7,0.2,1.5,0.4,2.2c0,0.2,0.1,0.5,0.2,0.7c0.3,1.4,0.8,2.8,1.5,4.1c0.1,0.2,0.2,0.4,0.4,0.6
			c0.3,0.4,0.5,0.8,0.8,1.2c1.4,1.7,3.3,3,6.1,3.7h0c-1.7,2.6-2.9,4.8-3.7,6.7c-2.7,6.5,0.5,8.7,11.5,11.2c0.1,1.8-0.7,2.9-1.8,3.9
			c-0.2,0.2-0.3,0.3-0.5,0.4c-1.2,1-2.6,1.9-3.1,3.4c0,0.1-0.1,0.2-0.1,0.3c-0.1,0.4-0.1,0.8-0.1,1.2c0.2,1.1,0.6,2,1,2.7
			c0.3,0.5,0.7,1,1.1,1.3c0.3,0.2,0.6,0.4,0.9,0.6c3.5,1.9,8.9-0.3,12,2.3c-1.9,5.1-9.3,6.1-6.1,12.3c2.5,4.7,7.4,1.9,11.2,2.5
			c1.6,0.3,3.3-0.1,4.9,0.1c8.6,1.2,11.8-2.6,11.1-11.8c-0.6-8.5-0.1-17-0.1-25.3c8.2-2.7,14.8-3.8,21.7-1.7
			c0.2,2.4,0.2,4.2,0.5,5.8c0.8,4.1-2.3,11,5,10.8c6.9-0.3,4.6-7,4.8-11.2c0.3-10.3,0.1-20.7,0.1-30.6c7-3.6,13.2-2.3,19.2-2.3
			c31.3-0.2,31.3-0.1,31.9,32.9c0.1,4.1-2.5,11.1,4.5,11.1c7.8,0,5.3-7.4,5.3-12c0.2-38.7,0.1-77.4,0.2-116.1
			c0-4.6-1.2-9.5,1.7-14.3c16.3-0.8,32.5-5,50.4-2v158.3c4.8,0,8.5,1.7,12.1-2.6c0-27.5-0.1-55.8,0.1-84c0-4.8-1.8-11.3,5.8-12
			c12.2-1.1,24.4-2.2,36.6-2.8c7.8-0.3,11.4,3.6,10.9,12.8c-0.8,13.9-0.2,27.8-0.2,41.7v53.7c9.6,3.2,11.7-0.5,12.1-8.4
			c0.4-8.4-3.8-18.5,2.9-24.7c5-4.7,5.3-9,5.3-14.6c0-35.2-0.1-70.4,0-105.7c0-13.8-2.8-28.3,10.2-39.9c7,0,15.5,0,24.1,0
			c17.7,0.1,22.9,5.6,22.9,24.5c0,41.3,0,82.6,0,123.9c0,21,0,21,18,25.9c0.3,6.2,0.7,12.6,1.1,19.5c7.8,1.1,14.9,1.6,21.6-0.1
			c7.2-17.4,8.9-34.4,5.6-52.3c-1-5.5,3.7-7.9,8.8-7.9c15.9,0.1,31.8,0,47.7,0.2c6.9,0.1,9,3.2,8.1,11.4
			c-1.4,13.1-2.3,26.5,3.1,39.3c1,2.4,2.3,4.8,3.8,7.2C1078.7,284.5,1068,277.6,1070.1,267.8z"/>
		<path d="M1074,294.8c-1.5-2.4-2.8-4.8-3.8-7.2c-5.4-12.8-4.5-26.2-3.1-39.3c0.9-8.2-1.2-11.3-8.1-11.4
			c-15.9-0.2-31.8-0.1-47.7-0.2c-5.1,0-9.8,2.4-8.8,7.9c3.3,17.9,1.6,34.9-5.6,52.3c-6.6,1.6-13.7,1.2-21.6,0.1
			c-0.4-7-0.7-13.3-1.1-19.5c-18-4.9-18-4.9-18-25.9c0-41.3,0-82.6,0-123.9c0-19-5.2-24.5-22.9-24.5c-8.5,0-17.1,0-24.1,0
			c-13,11.6-10.2,26.2-10.2,39.9c-0.1,35.2,0,70.5,0,105.7c0,5.6-0.3,9.9-5.3,14.6c-6.6,6.2-2.5,16.3-2.9,24.7
			c-0.4,7.9-2.5,11.7-12.1,8.4v-53.7c0-13.9-0.6-27.9,0.2-41.7c0.5-9.2-3.1-13.1-10.9-12.8c-12.2,0.5-24.4,1.7-36.6,2.8
			c-7.6,0.7-5.7,7.1-5.8,12c-0.1,28.2-0.1,56.5-0.1,84c-3.6,4.4-7.3,2.6-12.1,2.6V131.3c-17.8-3-34.1,1.2-50.4,2
			c-2.9,4.8-1.7,9.7-1.7,14.3c-0.1,38.7,0,77.4-0.2,116.1c0,4.6,2.4,12-5.3,12c-7.1,0-4.4-7-4.5-11.1c-0.7-33.1-0.6-33.2-31.9-32.9
			c-6,0-12.2-1.3-19.2,2.3c0,9.9,0.2,20.3-0.1,30.6c-0.1,4.3,2.2,11-4.8,11.2c-7.3,0.3-4.3-6.6-5-10.8c-0.3-1.7-0.3-3.4-0.5-5.8
			c-6.9-2-13.5-1-21.7,1.7c0,8.2-0.5,16.8,0.1,25.3c0.6,9.1-2.5,13-11.1,11.8c-1.6-0.2-3.3,0.2-4.9-0.1c-3.8-0.7-8.7,2.2-11.2-2.5
			c-3.3-6.2,4.2-7.3,6.1-12.3c-3.2-2.6-8.6-0.4-12-2.3c-0.3-0.2-0.6-0.4-0.9-0.6c-0.4-0.3-0.8-0.8-1.1-1.3c-0.4-0.7-0.8-1.6-1-2.7
			c0-0.5,0-0.9,0.1-1.3c0-0.1,0.1-0.2,0.1-0.3c0.5-1.5,1.9-2.4,3.1-3.4c0.2-0.1,0.3-0.3,0.5-0.4c1.1-1,1.9-2.1,1.8-3.9
			c-11-2.4-14.2-4.7-11.5-11.2c0.8-1.8,2-4,3.7-6.7c-2.8-0.7-4.8-2-6.1-3.7c-0.3-0.4-0.6-0.8-0.8-1.2c-0.1-0.2-0.3-0.4-0.4-0.6
			c-0.7-1.3-1.1-2.6-1.5-4.1c-0.1-0.2-0.1-0.5-0.2-0.7c-0.2-0.7-0.3-1.5-0.4-2.2c-0.4-2.5-0.5-5-0.9-7.2c-2-11.4-2.1-23.3-2.4-35
			c-1.2-48.7-2.3-97.4-3.3-146c-0.1-5.3-0.6-10.3-3.1-15.3c-3.5,4.4-3.4,9.5-3.5,14.6c-1.5,56.5-3,113-4.6,169.4
			c-0.3,11.3-0.3,23-9.9,31.2c-0.5,0.4-0.6,2.4-0.1,3.1c7.5,12-0.2,13.9-8.8,15.2c7.6,13.1,7.1,14-9.1,16c2.2,4.4,4.3,8.7,8.3,16.6
			c-12.6-4.2-25.7,7.5-29.2-12h-25.6c-1.4-6-2.6-10.9-10.1-11.8c-5.2-0.6-3.3-8-3.3-12.5c-0.2-36.5-0.6-73.1,0.2-109.6
			c0.2-11.3-4.3-15.3-13.3-14.9c-14.2,0.7-28.3,2.5-43.6,3.9v154.9c-4.9,3.7-8.8,2.9-14.3,0.9c4.2-22.7-8-43.9-6.2-67.4
			c1.7-21.5,0.4-43.4,0.4-65.9c-12.3-4-24.5-2.6-38.4-4v114.1c-6.6,2.5-11.4,1.9-16.2,1c-3.3-4.7-1.3-10.1-1.9-15.2
			c-1-8.9,3.2-19-6.3-26c-1.9-1.4-1-7.4-1-11.2c-0.1-39.5,0-79.1,0-120.2c-16-1.2-31.4-3-46.7-3.2c-8.2-0.1-12.3,4.4-12.2,14.9
			c0.6,56.1,0.3,112.2,0.3,168.3V297c-4.8,4.1-9.1,2.8-14,1.9c-3.2-14.8,0.6-30.1-2.4-45.9h-49.8c1.8-29.3-3-56.6-11.1-84.1
			c-15.3,39.4-9.7,80.6-11,120.6c-16.2,4.2-16.9,3.6-16.9-12.8c0-7.4-0.8-14.9,0.2-22.2c1.4-10.7-3.8-13.8-12.3-14.4
			c-2.4-0.2-4.9-0.2-7.3-0.1c-18,0.4-21,2-18.6,20.5c1.9,14.6-7.1,23.4-10.5,34.9c-0.8,2.5-3.2,2.4-5.2,1.8c-3.2-1-2.6-4-2.7-6.4
			c-0.7-14.3-1.3-28.5-2-42.8c-1.2-26.2,3.5-52.7-3.1-78.6c-0.8-3.3-1.7-6.6-2.6-9.9c0.3-0.4,0.7-0.8,1-1.2
			c10.1,11.9,8.5,27.1,8.9,41.1c0.9,30.3,0.3,60.6,0.3,93c3.5-5.2,1.4-11.9,8.1-12.1c3.7-0.1,4-3.6,3.9-6.8c0-3-0.4-6.2,0.1-9.1
			c1.3-8.1-4.6-19.2,3.7-24c10.9-6.3,23.7-5,35.9-1.9c5.6,1.5,6.3,5.8,6.3,11c-0.1,10.4,0,20.9,0.1,31.3c0,3-0.3,6.3,3.9,6.6
			c4.8,0.3,5.1-2.9,5.1-6.7c-0.1-9.6,0.7-19.2-0.1-28.7c-2.3-31.8,5.1-62.1,11.7-92.5c0.3-1.5,1.4-2.8,3.2-6.3
			c8.2,32,16.8,61.6,13.5,95.3h51.5v46.1c9.3,3.9,9.2-2.2,9.2-8c0-24.8,0-49.6,0-74.4c0-32.6,0.7-65.3-0.3-97.9
			c-0.4-13.8,5.7-18.2,16.3-18c14.3,0.2,28.5,1.8,42.8,2.7c7.7,0.5,6.2,6.6,6.2,11.5c0.1,36.1,0,72.2,0.1,108.3
			c0,6.7,0,12.5,5.2,18.8c5.6,6.7,1.9,17.5,2,26.5c0,9.1,3.9,9.9,11.5,7.8V156.5c14.2,1,27.4,1.7,40.6,3.1c5.8,0.6,4.5,6.3,4.5,10.5
			c0.1,20.4,1.3,41-0.3,61.3c-1.7,22.5,12.7,41.9,6.1,65.4c10.3-2.1,7.7-8.5,7.7-12.8c0.2-43.5,0.5-87-0.1-130.5
			c-0.1-11.3,2.2-16.6,13.9-16.2c10.1,0.3,20.3-2.3,30.4-2.9c15.9-1,19.7,3.2,19.7,20.5c0,38.3,0,76.5,0,115.8c7.3,0.6,13,3.6,13,11
			c9.6,6.3,24.5-6.8,28.8,12h15.4c-0.5-5.2-6.5-6.3-5.9-12c2.7-5.9,9.3-2.7,13.8-5.5c0.2-4.9-6.6-5.1-6-10.4
			c3.1-5.5,9.9-2.5,13.9-6.3c1.8-6-6-6.6-5.8-11.7c14.4-7.5,13.2-22.4,13.7-35.4c1.7-46.9,2.2-93.9,3.9-140.8
			c0.6-17.1-1-34.8,7-52.7c5,9.9,6.7,19.1,6.9,28.9c1.5,55.6,3,111.2,4.6,166.8c0.1,5.2,0.5,10.5,1.6,15.5
			c1.6,7.4,3.4,15.1,11.8,16.6c0.3,5.8-6.2,6.6-5.7,12.7c3.5,3.9,11,0.9,14.2,6.6c-0.5,4.6-5,5.6-6.7,9.3c4.2,4,10.8,0.8,14,5.9
			c1.3,5.8-5.1,7.3-6.2,12.6h18.9c0-9,0.4-17.6-0.1-26.1c-0.6-8.8,2.2-12.9,10.9-12.7c5.6,0.2,11.2-1.1,16.5-1.7
			c3.8,5.3,0.6,11.5,5.2,16.2c0-9.7,0.5-19.5-0.2-29.2c-0.6-9.1,3.3-13,11-13.2c12.2-0.3,24.5-0.4,36.7,0
			c7.2,0.2,10.8,4.2,10.3,12.6c-0.6,9.9-0.1,19.9-0.1,31.8c4-5.1,2.7-9.2,2.7-12.8c0.1-38.7,0.4-77.4-0.2-116.1
			c-0.2-11,3.4-14.5,13.1-14.7c14.6-0.3,29.2-1.6,46.2-2.7v160.6c1.9,0,3.8,0.1,5.7,0.1c1.9-32-0.1-64.2,1.1-97.3
			c16.5-2.4,32.4-4.8,48.7-4c7.7,0.3,10.5,3.5,10.4,12c-0.5,27.8-0.2,55.7-0.1,83.5c0,4.4-1.1,9.2,2.7,15.4c2.9-7.3,1.6-13.2,2-18.8
			c0.5-7.3-2.6-15.7,7.1-19.8c3.6-1.5,1.8-7.1,1.8-10.9c0.1-40.9,0-81.8,0.1-122.6c0.1-19.8,4.7-24.8,22.6-24.8
			c9.8,0,19.6,0,29.4,0.1c0.6,0,1.2,0.1,1.3,0.2c0,0,0,0-0.1,0c14.2,13.2,11,30.3,11,46.4c0.1,41.3,0,82.5,0,123.4
			c5.3,4.3,11.2,0.5,16.3,3.7c3.5,6,0,13.4,2.6,20.3c4.2,3,9.1,1.3,13.7,1.2c8.2-16.9,10-34,3.4-53c5.8-4,10-9.9,7.9-18.6
			c0.1-1.5,0.3-3.1,0.4-4.6c1.2-4.1-3.4-9.6,3.8-12.9c2.3,6.7,10.9,9.7,8.2,19.7c-0.6,2.1,2.9-1.1,4.6-0.9c0.4,0.3,0.7,0.7,1,1
			c7.2,8.3,16.6,8,26,7.9c9.2-0.1,19-2.2,25.9,9c-4.6,7.3-1.9,17.2-3.9,26.1C1068,277.6,1078.7,284.5,1074,294.8z"/>
		<path d="M83.6,59.3c-0.3,0.3-0.7,0.6-1,1c-6.2-3.5-8.2-9.5-6.7-16.8C61.2,59.2,64.4,80,58.5,97.9c-5.2,15.5-2.1,34.3-2.3,51.6
			c-0.2,17.8-0.9,35.6,0.2,53.3c0.9,13.7-3.6,19.3-16.3,21.1c-19.5,2.8-22.1,1.7-21-18.5c0.7-13.7-4.1-26.2-4.8-39.5
			c-0.3-5.7-5.1-7.2-9.2-9.1l-0.6-0.7c-0.1-3.3-0.8-6.8,1.7-9.9C20.6,163,22.8,183,22.1,204.2c-0.2,6.4-4.7,17,8.3,17.2
			c17.2,0.3,22.6-4,22.7-18.5c0.2-24.8,0.8-49.6,0.4-74.3c-0.2-10.1-4.7-21.6,0.4-29.8c7.8-12.5,2.7-27.5,9.5-39.2
			c5.1-8.7,6.7-17.9,7.6-27.7c0.3-2.8-0.7-6.3,3.9-8C77.9,35.7,78,48.3,83.6,59.3z"/>
		<path d="M147.3,158.4c-0.3,0.4-0.7,0.8-1,1.2c-8.4-3.5-12,1-13.2,9.2c-2.1,14.5-4.9,29-3.4,43.7c1.1,10.3-4,13.2-12.3,12.3
			c-5.7-0.6-11.4-1.3-16.9-2.7c-4.5-1.1-8.2-3.6-8.1-9.6c0.1-32.4,0-64.9,0.3-97.3c0.1-6.2-1.6-15.2-3.1-17.3
			c-8.3-11.9-1.9-25.8-6.9-37.6c0.3-0.3,0.7-0.6,1-1c0.3,0.2,0.9,0.4,1,0.7c5.6,16.9,9.9,34.9,11.5,52c1.1,12.3-0.1,26.3-0.5,39.6
			c-0.4,15.6-0.1,31.2-0.1,46.8c0,19.8,0,19.9,18.1,22.6c3.1,0.5,6.4,0.1,11.4,0.1c2.7-25.7-3.1-53.6,16.7-74.6
			C143.5,150.3,145.4,154.3,147.3,158.4z"/>
		<path d="M1001.4,179.2c6.6-7.1,16.2-10.2,20.4-19c6.3,2,3.3,7.3,5.6,10.5c3.7-3.9,7.2-8.7,13.2-4.7c7.9,5.1,13.3,11.9,11.9,22.8
			c8.5,1.1,16.8,1.1,23,10.3c-6.8,1.2-7.2,8.1-11.2,12.3c-6-2.8,0.4-9.7-4.3-12.4c-2-1.5-3.6,0.1-5.1,1.5
			c-6.7,6.2-11.4,15.5-22.9,13.9c-5-0.7-5,8.4-9.9,10.4c-0.3-0.3-0.7-0.7-1-1c2.6-5.6,3.9-12.6,11.4-13.4c9.5-1,15.1-8.2,22.6-15.3
			c-4.7-2.3-7-6.1-7-10.8c0-8-3.9-13.6-10.7-14.8c-9.4-1.7-4,9.1-7.8,12.7c-5.1-1.7-4.1-9.7-9.9-10.3c-5.7,2.7-11.6,5.6-17.4,8.4
			C1001.9,179.8,1001.6,179.5,1001.4,179.2z"/>
		<path d="M5.1,156.8c-8.4,12.9-9.4,28.1-9.6,42.8c-0.4,32.9,0.4,65.7-1.6,98.3c-4.8,3-9.2,2-16.5,1c5.5-1.6,8.4-2.5,12-3.6
			c0.3-2.2,0.5-4.7,0.8-7.2c4-35.8-0.2-71.8,3-107.6c0.8-9-0.6-20.6,11.2-24.5L5.1,156.8z"/>
		<path d="M73.6,153.5c-3.9,6.9-6.3,54.7-3.6,60.2c1.7,3.6,4.4,3,7.1,1.8C80.6,193.1,79,161,73.6,153.5z M75,210.4
			c-0.4,0-0.8,0-1.2,0v-48.7c0.4,0,0.8,0,1.2,0V210.4z"/>
		<path d="M7.1,216.2c-7.6,0.4-3.5-6.8-5.2-9.8c1.1-5.2-1.9-12.7,5.4-12.5c5.9,0.1,4.6,7,4.4,11.4C11.5,209.3,14,215.9,7.1,216.2z"
			/>
		<path d="M145.5,214.2c-0.2,2.2-3,2.4-5.1,2.2c-1.7-0.2-3.3-1.2-3.2-3c0.2-6.8-2.6-14.3,3.2-20.7
			C149.9,198.3,146.2,206.7,145.5,214.2z"/>
		<path d="M1004.5,217.9c-0.1,1.5-0.3,3.1-0.4,4.6c-7.3-5.9-10.3-12.9-4.2-21.6c2.3-3.3,2.2-5.6-0.4-8.8c-3.7-4.6-3.4-9.3,1.9-12.8
			c0.3,0.3,0.6,0.6,0.9,0.9c-1.4,9.6,9.4,20-1.9,29.3C999,210.5,1001.4,215.9,1004.5,217.9z"/>
		<path d="M1004.5,217.9c-3.1-2-5.4-7.4-4.2-8.4c11.3-9.3,0.5-19.7,1.9-29.3c5.9-2.8,11.7-5.6,17.4-8.4c5.8,0.7,4.8,8.7,9.9,10.3
			c3.8-3.7-1.6-14.4,7.8-12.7c6.8,1.2,10.7,6.8,10.7,14.8c0,4.7,2.3,8.6,7,10.8c-7.5,7.1-13.1,14.3-22.6,15.3
			c-7.5,0.8-8.8,7.7-11.4,13.4c-1.7-0.2-5.2,3-4.6,0.9c2.8-10-5.9-13-8.2-19.7C1001.1,208.3,1005.7,213.8,1004.5,217.9z"/>
		<ellipse cx="74.4" cy="186.1" rx="0.9" ry="34.4"/>
	</g>
	<path d="M1067.1,248.4c0.9-8.2-1.2-11.3-8.1-11.4c-15.9-0.2-31.8-0.1-47.7-0.2c-5.1,0-9.8,2.4-8.8,7.9c3.3,17.9,1.6,34.9-5.6,52.3
		c-6.6,1.6-13.7,1.2-21.6,0.1c-0.4-7-0.7-13.3-1.1-19.5c-18-4.9-18-4.9-18-25.9c0-41.3,0-82.6,0-123.9c0-19-5.2-24.5-22.9-24.5
		c-8.5,0-17.1,0-24.1,0c-13,11.6-10.2,26.2-10.2,39.9c-0.1,35.2,0,70.5,0,105.7c0,5.6-0.3,9.9-5.3,14.6c-6.6,6.2-2.5,16.3-2.9,24.7
		c-0.4,7.9-2.5,11.7-12.1,8.4v-53.7c0-13.9-0.6-27.9,0.2-41.7c0.5-9.2-3.1-13.1-10.9-12.8c-12.2,0.5-24.4,1.7-36.6,2.8
		c-7.6,0.7-5.7,7.1-5.8,12c-0.1,28.2-0.1,56.5-0.1,84c-3.6,4.4-7.3,2.6-12.1,2.6V131.3c-17.8-3-34.1,1.2-50.4,2
		c-2.9,4.8-1.7,9.7-1.7,14.3c-0.1,38.7,0,77.4-0.2,116.1c0,4.6,2.4,12-5.3,12c-7.1,0-4.4-7-4.5-11.1c-0.7-33.1-0.6-33.2-31.9-32.9
		c-6,0-12.2-1.3-19.2,2.3c0,9.9,0.2,20.3-0.1,30.6c-0.1,4.3,2.2,11-4.8,11.2c-7.3,0.3-4.3-6.6-5-10.8c-0.3-1.7-0.3-3.4-0.5-5.8
		c-6.9-2-13.5-1-21.7,1.7c0,8.2-0.5,16.8,0.1,25.3c0.6,9.1-2.5,13-11.1,11.8c-1.6-0.2-3.3,0.2-4.9-0.1c-3.8-0.7-8.7,2.2-11.2-2.5
		c-3.3-6.2,4.2-7.3,6.1-12.3c-3.2-2.6-8.6-0.4-12-2.3c-0.3-0.2-0.6-0.4-0.9-0.6c-0.4-0.3-0.8-0.8-1.1-1.3c-0.4-0.7-0.8-1.6-1-2.7
		c0-0.5,0-0.9,0.1-1.3c0-0.1,0.1-0.2,0.1-0.3c0.5-1.5,1.9-2.4,3.1-3.4c0.2-0.1,0.3-0.3,0.5-0.4c1.1-1,1.9-2.1,1.8-3.9
		c-11-2.4-14.2-4.7-11.5-11.2c0.8-1.8,2-4,3.7-6.7c-2.8-0.7-4.8-2-6.1-3.7c-0.3-0.4-0.6-0.8-0.8-1.2c-0.1-0.2-0.3-0.4-0.4-0.6
		c-0.7-1.3-1.1-2.6-1.5-4.1c-0.1-0.2-0.1-0.5-0.2-0.7c-0.2-0.7-0.3-1.5-0.4-2.2c-0.4-2.5-0.5-5-0.9-7.2c-2-11.4-2.1-23.3-2.4-35
		c-1.2-48.7-2.3-97.4-3.3-146c-0.1-5.3-0.6-10.3-3.1-15.3c-3.5,4.4-3.4,9.5-3.5,14.6c-1.5,56.5-3,113-4.6,169.4
		c-0.3,11.3-0.3,23-9.9,31.2c-0.5,0.4-0.6,2.4-0.1,3.1c7.5,12-0.2,13.9-8.8,15.2c7.6,13.1,7.1,14-9.1,16c2.2,4.4,4.3,8.7,8.3,16.6
		c-12.6-4.2-25.7,7.5-29.2-12h-25.6c-1.4-6-2.6-10.9-10.1-11.8c-5.2-0.6-3.3-8-3.3-12.5c-0.2-36.5-0.6-73.1,0.2-109.6
		c0.2-11.3-4.3-15.3-13.3-14.9c-14.2,0.7-28.3,2.5-43.6,3.9v154.9c-4.9,3.7-8.8,2.9-14.3,0.9c4.2-22.7-8-43.9-6.2-67.4
		c1.7-21.5,0.4-43.4,0.4-65.9c-12.3-4-24.5-2.6-38.4-4v114.1c-6.6,2.5-11.4,1.9-16.2,1c-3.3-4.7-1.3-10.1-1.9-15.2
		c-1-8.9,3.2-19-6.3-26c-1.9-1.4-1-7.4-1-11.2c-0.1-39.5,0-79.1,0-120.2c-16-1.2-31.4-3-46.7-3.2c-8.2-0.1-12.3,4.4-12.2,14.9
		c0.6,56.1,0.3,112.2,0.3,168.3V297c-4.8,4.1-9.1,2.8-14,1.9c-3.2-14.8,0.6-30.1-2.4-45.9h-49.8c1.8-29.3-3-56.6-11.1-84.1
		c-15.3,39.4-9.7,80.6-11,120.6c-16.2,4.2-16.9,3.6-16.9-12.8c0-7.4-0.8-14.9,0.2-22.2c1.4-10.7-3.8-13.8-12.3-14.4
		c-2.4-0.2-4.9-0.2-7.3-0.1c-18,0.4-21,2-18.6,20.5c1.9,14.6-7.1,23.4-10.5,34.9c-0.8,2.5-3.2,2.4-5.2,1.8c-3.2-1-2.6-4-2.7-6.4
		c-0.7-14.3-1.3-28.5-2-42.8c-1.2-26.2,3.5-52.7-3.1-78.6c-0.8-3.3-1.7-6.6-2.6-9.9c-8.4-3.5-12,1-13.2,9.2
		c-2.1,14.5-4.9,29-3.4,43.7c1.1,10.3-4,13.2-12.3,12.3c-5.7-0.6-11.4-1.3-16.9-2.7c-4.5-1.1-8.2-3.6-8.1-9.6
		c0.1-32.4,0-64.9,0.3-97.3c0.1-6.2-1.6-15.2-3.1-17.3c-8.3-11.9-1.9-25.8-6.9-37.6c-6.2-3.5-8.2-9.5-6.7-16.8
		C61.2,59.2,64.4,80,58.5,97.9c-5.2,15.5-2.1,34.3-2.3,51.6c-0.2,17.8-0.9,35.6,0.2,53.3c0.9,13.7-3.6,19.3-16.3,21.1
		c-19.5,2.8-22.1,1.7-21-18.5c0.7-13.7-4.1-26.2-4.8-39.5c-0.3-5.7-5.1-7.2-9.2-9.1c-8.4,12.9-9.4,28.1-9.6,42.8
		c-0.4,32.9,0.4,65.7-1.6,98.3c-4.8,3-9.2,2-16.5,1l29.4,6.6h386.3l308.5-0.7h268.2l100.4-17.1
		C1064.8,274.9,1065.8,261.5,1067.1,248.4z"/>
	<polygon points="1074,287 1074,294.8 1000,309.2 5.1,309.2 -20.3,299.7 -22.5,298.9 6.9,305.5 393.2,305.5 701.7,304.8 
		969.8,304.8 1070.2,287.7 	"/>
</g>
</svg>
