<svg xmlns="http://www.w3.org/2000/svg" viewBox="0 0 1053.55 261.46"><title>css</title><path d="M476.44,571.9" transform="translate(-85.23 -220.1)"/><path d="M241.51,376.49c-5.58,5.81-2.9,12.54-3.06,18.69,0,1.68,1.44,2.6,3.11,2.74,2,.18,4.67,0,4.87-2C247.12,389.24,250.68,381.6,241.51,376.49ZM118,387.86c.18-3.95,1.38-10.12-4.25-10.23-7-.13-4.07,6.65-5.14,11.29,1.64,2.72-2.23,9.21,5,8.86C120.21,397.46,117.83,391.58,118,387.86Zm59.5-46.63c-3.74,6.21-6.06,49.26-3.43,54.28,1.67,3.2,4.18,2.72,6.82,1.58C184.13,376.91,182.65,348,177.49,341.23Zm956.19,103c1.84-8-.71-16.94,3.7-23.53-6.65-10.13-16.05-8.2-24.83-8.13-9.09.08-18.1.36-25-7.09,4.67-1.75,4.76-9.92,9.52-9.33,11.05,1.38,15.49-7,22-12.56,1.44-1.25,2.9-2.69,4.85-1.38,4.53,2.42-1.56,8.66,4.17,11.16,3.79-3.79,4.2-10,10.7-11.06-6-8.24-13.93-8.26-22.09-9.25,1.36-9.84-3.81-15.9-11.37-20.54-5.84-3.56-9.14.78-12.69,4.28-2.17-2.86.7-7.69-5.37-9.48-4,8-13.23,10.76-19.57,17.12-5,3.16-5.34,7.39-1.81,11.54,2.49,2.91,2.61,4.95.38,8-5.82,7.86-2.94,14.16,4.06,19.49,2,7.86-2,13.13-7.59,16.75,6.28,17.05,4.6,32.51-3.27,47.71-4.46.05-9.1,1.61-13.15-1.08-2.51-6.2.9-12.89-2.48-18.27-4.9-2.8-10.51.56-15.63-3.29,0-36.8.1-74,0-111.15,0-14.52,3-29.86-10.58-41.78h.08a4.82,4.82,0,0,0-1.26-.15q-14.1,0-28.21-.05c-17.18,0-21.68,4.46-21.73,22.32-.1,36.83,0,73.66-.13,110.49,0,3.37,1.73,8.41-1.74,9.79-9.32,3.74-6.34,11.27-6.84,17.86-.39,5,.91,10.36-1.91,16.92-3.66-5.55-2.58-9.88-2.59-13.88-.12-25.08-.34-50.16.11-75.23.13-7.66-2.53-10.51-10-10.82-15.64-.65-30.95,1.46-46.75,3.63-1.16,29.75.75,58.8-1,87.63l-5.52-.1V316c-16.31.94-30.32,2.11-44.34,2.42-9.28.21-12.75,3.39-12.57,13.28.6,34.86.27,69.74.18,104.61,0,3.27,1.2,7-2.62,11.53,0-10.76-.44-19.73.13-28.65.49-7.61-3-11.19-9.93-11.39-11.74-.35-23.5-.27-35.25,0-7.41.17-11.22,3.65-10.6,11.87.66,8.74.16,17.56.16,26.34-4.48-4.24-1.43-9.85-5-14.64-5.08.52-10.45,1.63-15.78,1.49-8.32-.22-11,3.48-10.47,11.4.53,7.68.11,15.43.11,23.53H725.92c1-4.69,7.2-6.11,6-11.31-3.1-4.65-9.45-1.79-13.45-5.36,1.57-3.27,5.94-4.24,6.39-8.35-3-5.14-10.29-2.44-13.62-6-.48-5.48,5.73-6.18,5.44-11.45-8-1.35-9.76-8.24-11.27-14.92a72.61,72.61,0,0,1-1.53-14q-2.34-75.15-4.45-150.31a56.12,56.12,0,0,0-6.64-26.05c-7.62,16.12-6.11,32-6.68,47.44-1.57,42.27-2.07,84.58-3.71,126.85-.47,11.77.66,25.14-13.14,31.92-.15,4.55,7.37,5.08,5.61,10.52-3.81,3.43-10.37.77-13.3,5.72-.52,4.8,6,5,5.78,9.39-4.29,2.48-10.62-.36-13.24,4.95-.56,5.1,5.17,6.1,5.65,10.8H644.92c-4.18-16.94-18.47-5.14-27.66-10.8,0-6.72-5.5-9.43-12.5-9.93,0-35.43,0-69.89,0-104.36,0-15.62-3.59-19.34-18.89-18.46-9.76.57-19.51,2.9-29.22,2.61-11.22-.34-13.44,4.38-13.29,14.58.52,39.18.27,78.37.07,117.55,0,3.84,2.53,9.66-7.37,11.51,6.29-21.2-7.51-38.72-5.86-58.95,1.5-18.29.36-36.81.26-55.22,0-3.7,1.24-8.85-4.32-9.42-12.59-1.29-25.27-1.88-38.93-2.82V448c-7.26,1.86-11,1.13-11-7.07s3.46-17.81-1.88-23.86c-5-5.67-5-10.91-5-17-.08-32.52,0-65-.09-97.56,0-4.43,1.44-10-6-10.39-13.68-.79-27.35-2.22-41-2.39-10.15-.12-16,3.83-15.61,16.26,1,29.36.3,58.77.29,88.16q0,33.5,0,67c0,5.28.07,10.72-8.86,7.23V426.93H348.58c3.23-30.35-5.07-57-12.9-85.83-1.73,3.15-2.75,4.33-3.06,5.68-6.31,27.43-13.5,54.72-11.25,83.36.68,8.57,0,17.23.05,25.85,0,3.49-.36,6.36-4.93,6.07-4.06-.25-3.75-3.22-3.76-5.95-.05-9.41-.15-18.81-.05-28.21,0-4.66-.64-8.62-6-9.93-11.68-2.86-24-4-34.43,1.67C264.35,424,270,434,268.73,441.29c-.48,2.67-.13,5.48-.1,8.22s-.19,6.07-3.77,6.13c-6.5.11-4.46,6.16-7.82,10.86,0-29.14.59-56.48-.27-83.77-.39-12.64,1.16-26.33-8.57-37.06-1.83-3.63-3.68-7.25-5.43-10.71-19,19-13.45,44.05-16,67.23-4.75,0-7.88.36-10.89-.06-17.42-2.43-17.41-2.49-17.41-20.37,0-14.07-.29-28.14.1-42.19.33-11.93,1.52-24.59.44-35.66-1.51-15.45-5.62-31.62-11-46.86-.09-.3-.62-.45-.94-.67-5.39-9.85-5.47-21.24-8.33-32-4.35,1.57-3.47,4.67-3.72,7.23-.88,8.76-2.46,17.07-7.33,24.92-6.54,10.55-1.69,24.08-9.13,35.35-4.93,7.47-.52,17.82-.38,26.89.38,22.32-.19,44.65-.37,67-.12,13.09-5.3,16.94-21.83,16.68-12.44-.19-8.15-9.75-7.93-15.49.68-19.15-1.43-37.13-15.29-52.32-2.37,2.84-1.69,6-1.64,9-11.37,3.49-10,13.89-10.76,22-3,32.22,1,64.68-2.86,96.91-.26,2.26-.54,4.52-.77,6.53l-11.5,3.2c7,.84,11.17,1.75,15.78-.94,1.87-29.34,1.09-59,1.49-88.57.19-13.24,1.12-26.91,9.19-38.56,4,1.68,8.61,3,8.87,8.19.63,12,5.27,23.29,4.56,35.61-1,18.18,1.49,19.14,20.17,16.65,12.15-1.62,16.47-6.66,15.64-19-1.07-15.94-.42-32-.19-48,.21-15.62-2.79-32.51,2.19-46.51,5.69-16.08,2.59-34.82,16.75-49.07-1.43,6.62.5,12,6.4,15.18,4.77,10.58-1.32,23.12,6.62,33.84,1.45,2,3,10,3,15.62-.25,29.23-.16,58.45-.25,87.68,0,5.43,3.5,7.69,7.81,8.68a129.59,129.59,0,0,0,16.21,2.43c8,.81,12.82-1.81,11.81-11.09-1.45-13.3,1.22-26.34,3.25-39.39,1.16-7.37,4.66-11.39,12.7-8.28q1.26,4.44,2.48,8.89c6.36,23.38,1.82,47.23,3,70.84q.94,19.29,1.92,38.57c.1,2.23-.43,4.94,2.59,5.8,1.93.54,4.27.59,5-1.66,3.34-10.41,11.94-18.26,10.13-31.45-2.3-16.74.57-18.13,17.87-18.51,2.34-.06,4.7,0,7.05.13,8.08.5,13.07,3.35,11.76,13-.88,6.54-.18,13.3-.16,20,0,14.77.71,15.29,16.24,11.51,1.3-36-4.08-73.1,10.57-108.63,7.76,24.77,12.43,49.39,10.67,75.76h47.81c2.94,14.27-.75,28.08,2.33,41.37,4.73.83,8.9,2,13.48-1.72V458.25c0-50.55.31-101.1-.29-151.63-.1-9.5,3.9-13.57,11.73-13.45,14.73.22,29.44,1.81,44.82,2.88,0,37,0,72.64.05,108.26,0,3.48-.81,8.88,1,10.13,9.19,6.33,5.14,15.4,6.08,23.42.54,4.53-1.37,9.4,1.79,13.67,4.65.79,9.24,1.32,15.56-.92V347.82c13.32,1.24,25,0,36.81,3.6,0,20.26,1.29,39.93-.36,59.34-1.79,21.18,9.94,40.22,5.92,60.71,5.33,1.86,9,2.54,13.76-.78V331.1c14.69-1.29,28.26-2.91,41.88-3.54,8.57-.4,13,3.22,12.72,13.41-.72,32.9-.33,65.82-.16,98.73,0,4-1.86,10.7,3.14,11.26,7.12.8,8.33,5.21,9.66,10.61H638.6c3.39,17.61,15.92,7.06,28,10.85-3.81-7.12-5.87-11-8-14.92,15.57-1.77,16.06-2.57,8.72-14.38,8.23-1.23,15.67-3,8.46-13.73-.43-.65-.39-2.39.1-2.78,9.26-7.34,9.19-17.91,9.51-28.1q2.41-76.33,4.47-152.66c.13-4.62.05-9.2,3.39-13.16,2.35,4.44,2.86,9,3,13.76q1.47,65.78,3.16,131.56c.29,10.55.38,21.25,2.35,31.55.38,2,.53,4.26.88,6.49.09.67.21,1.33.36,2a5.42,5.42,0,0,0,.14.65,13.77,13.77,0,0,0,1.42,3.66,5.33,5.33,0,0,0,.33.55,9.92,9.92,0,0,0,.8,1,10.74,10.74,0,0,0,5.87,3.33h0a42.16,42.16,0,0,0-3.56,6c-2.6,5.86.46,7.87,11,10.07a4,4,0,0,1-1.71,3.47c-.16.14-.31.27-.49.4-1.17.91-2.46,1.74-3,3.08,0,.1-.07.19-.09.3a3.32,3.32,0,0,0-.13,1.12,7.09,7.09,0,0,0,.94,2.43,4.4,4.4,0,0,0,1,1.18,6,6,0,0,0,.82.53c3.33,1.7,8.52-.24,11.54,2.06-1.81,4.58-9,5.54-5.81,11.12,2.43,4.26,7.12,1.67,10.76,2.27,1.54.25,3.17-.13,4.69.08,8.24,1.12,11.29-2.37,10.67-10.6-.57-7.64-.12-15.36-.12-22.76,7.88-2.45,14.19-3.4,20.8-1.57.18,2.18.16,3.75.45,5.25.73,3.72-2.2,9.95,4.85,9.71,6.65-.23,4.44-6.27,4.56-10.1.29-9.3.09-18.61.09-27.55,6.7-3.26,12.66-2,18.41-2.06,30.08-.2,30-.13,30.64,29.67.08,3.71-2.43,10,4.34,10,7.46,0,5.1-6.67,5.11-10.8.18-34.87,0-69.74.16-104.61,0-4.17-1.15-8.59,1.64-12.92,15.59-.73,31.22-4.48,48.32-1.78V463.88c4.58,0,8.14,1.57,11.57-2.37,0-24.82-.06-50.25,0-75.69,0-4.35-1.75-10.15,5.52-10.78,11.69-1,23.4-2,35.11-2.51,7.52-.31,11,3.21,10.49,11.52-.74,12.49-.19,25.06-.19,37.6V470c9.16,2.91,11.22-.49,11.58-7.59.38-7.54-3.59-16.69,2.74-22.25,4.76-4.19,5.05-8.13,5.05-13.15,0-31.73-.08-63.47,0-95.21,0-12.39-2.69-25.52,9.79-35.95,6.7,0,14.9,0,23.1,0,17,.06,22,5,22,22.11q.06,55.83,0,111.67c0,18.91,0,18.91,17.28,23.33.34,5.6.67,11.33,1,17.6,7.52,1,14.32,1.4,20.69-.06a76.3,76.3,0,0,0,5.34-47.12c-1-4.92,3.59-7.1,8.49-7.08,15.25.07,30.5,0,45.74.18,6.64.09,8.62,2.87,7.8,10.27-1.31,11.78-2.22,23.88,3,35.37a41.7,41.7,0,0,0,3.66,6.47C1141.92,459.34,1131.67,453.05,1133.68,444.22Z" transform="translate(-85.23 -220.1)"/><path d="M1137.43,468.62a41.7,41.7,0,0,1-3.66-6.47c-5.19-11.49-4.28-23.59-3-35.37.82-7.4-1.16-10.18-7.8-10.27-15.24-.21-30.49-.11-45.74-.18-4.9,0-9.44,2.16-8.49,7.08a76.3,76.3,0,0,1-5.34,47.12c-6.37,1.46-13.17,1.05-20.69.06-.37-6.27-.7-12-1-17.6-17.28-4.42-17.28-4.42-17.28-23.33q0-55.85,0-111.67c0-17.08-5-22.05-22-22.11-8.2,0-16.4,0-23.1,0-12.48,10.43-9.74,23.56-9.79,35.95-.1,31.74,0,63.48,0,95.21,0,5-.29,9-5.05,13.15-6.33,5.56-2.36,14.71-2.74,22.25-.36,7.1-2.42,10.5-11.58,7.59V421.65c0-12.54-.55-25.11.19-37.6.49-8.31-3-11.83-10.49-11.52C928.1,373,916.39,374,904.7,375c-7.27.63-5.5,6.43-5.52,10.78-.11,25.44,0,50.87,0,75.69-3.43,3.94-7,2.35-11.57,2.37V321.27c-17.1-2.7-32.73,1.05-48.32,1.78-2.79,4.33-1.63,8.75-1.64,12.92-.11,34.87,0,69.74-.16,104.61,0,4.13,2.35,10.83-5.11,10.8-6.77,0-4.26-6.28-4.34-10-.64-29.8-.56-29.87-30.64-29.67-5.75,0-11.71-1.2-18.41,2.06,0,8.94.2,18.25-.09,27.55-.12,3.83,2.09,9.87-4.56,10.1-7,.24-4.12-6-4.85-9.71-.29-1.5-.27-3.07-.45-5.25-6.61-1.83-12.92-.88-20.8,1.57,0,7.4-.45,15.12.12,22.76.62,8.23-2.43,11.72-10.67,10.6-1.52-.21-3.15.17-4.69-.08-3.64-.6-8.33,2-10.76-2.27-3.15-5.58,4-6.54,5.81-11.12-3-2.3-8.21-.36-11.54-2.06a5.2,5.2,0,0,1-.82-.53,4.4,4.4,0,0,1-1-1.18,7.2,7.2,0,0,1-1-2.42,3.4,3.4,0,0,1,.15-1.13c0-.11.07-.2.09-.3.53-1.34,1.82-2.17,3-3.08l.49-.4a4,4,0,0,0,1.71-3.47c-10.57-2.2-13.63-4.21-11-10.07a42,42,0,0,1,3.55-6,10.74,10.74,0,0,1-5.87-3.33,9.92,9.92,0,0,1-.8-1,5.33,5.33,0,0,1-.33-.55,13.77,13.77,0,0,1-1.42-3.66A5.42,5.42,0,0,1,703,418a19.31,19.31,0,0,1-.36-2c-.35-2.23-.5-4.48-.88-6.49-2-10.3-2.06-21-2.35-31.55q-1.79-65.77-3.16-131.56c-.11-4.75-.62-9.32-3-13.76-3.34,4-3.26,8.54-3.39,13.16q-2.16,76.34-4.47,152.66c-.32,10.19-.25,20.76-9.51,28.1-.49.39-.53,2.13-.1,2.78,7.21,10.77-.23,12.5-8.46,13.73,7.34,11.81,6.85,12.61-8.72,14.38,2.08,3.92,4.14,7.8,8,14.92-12.1-3.79-24.63,6.76-28-10.85H614c-1.33-5.4-2.54-9.81-9.66-10.61-5-.56-3.13-7.24-3.14-11.26-.17-32.91-.56-65.83.16-98.73.23-10.19-4.15-13.81-12.72-13.41-13.62.63-27.19,2.25-41.88,3.54V470.69c-4.74,3.32-8.43,2.64-13.76.78,4-20.49-7.71-39.53-5.92-60.71,1.65-19.41.36-39.08.36-59.34-11.83-3.63-23.49-2.36-36.81-3.6V450.61c-6.32,2.24-10.91,1.71-15.56.92-3.16-4.27-1.25-9.14-1.79-13.67-.94-8,3.11-17.09-6.08-23.42-1.81-1.25-1-6.65-1-10.13-.06-35.62-.05-71.24-.05-108.26-15.38-1.07-30.09-2.66-44.82-2.88-7.83-.12-11.83,3.95-11.73,13.45.6,50.53.29,101.08.29,151.63v12.32c-4.58,3.68-8.75,2.55-13.48,1.72-3.08-13.29.61-27.1-2.33-41.37H346.31c1.76-26.37-2.91-51-10.67-75.76-14.65,35.53-9.27,72.63-10.57,108.63-15.53,3.78-16.2,3.26-16.24-11.51,0-6.66-.72-13.42.16-20,1.31-9.62-3.68-12.47-11.76-13-2.35-.15-4.71-.19-7.05-.13-17.3.38-20.17,1.77-17.87,18.51,1.81,13.19-6.79,21-10.13,31.45-.72,2.25-3.06,2.2-5,1.66-3-.86-2.49-3.57-2.59-5.8q-1-19.29-1.92-38.57c-1.17-23.61,3.37-47.46-3-70.84q-1.22-4.45-2.48-8.89c.34-.35.66-.71,1-1.07,9.73,10.73,8.18,24.42,8.57,37.06.86,27.29.27,54.63.27,83.77,3.36-4.7,1.32-10.75,7.82-10.86,3.58-.06,3.81-3.25,3.77-6.13s-.38-5.55.1-8.22c1.28-7.33-4.38-17.33,3.51-21.65,10.46-5.71,22.75-4.53,34.43-1.67,5.37,1.31,6,5.27,6,9.93-.1,9.4,0,18.8.05,28.21,0,2.73-.3,5.7,3.76,5.95,4.57.29,4.94-2.58,4.93-6.07-.05-8.62.63-17.28-.05-25.85-2.25-28.64,4.94-55.93,11.25-83.36.31-1.35,1.33-2.53,3.06-5.68,7.83,28.85,16.13,55.48,12.9,85.83H398v41.52c8.93,3.49,8.85-1.95,8.86-7.23q0-33.5,0-67c0-29.39.69-58.8-.29-88.16-.41-12.43,5.46-16.38,15.61-16.26,13.69.17,27.36,1.6,41,2.39,7.41.42,6,6,6,10.39.09,32.52,0,65,.09,97.56,0,6.05,0,11.29,5,17,5.34,6,1.85,15.78,1.88,23.86s3.78,8.93,11,7.07V344c13.66.94,26.34,1.53,38.93,2.82,5.56.57,4.3,5.72,4.32,9.42.1,18.41,1.24,36.93-.26,55.22-1.65,20.23,12.15,37.75,5.86,58.95,9.9-1.85,7.36-7.67,7.37-11.51.2-39.18.45-78.37-.07-117.55-.15-10.2,2.07-14.92,13.29-14.58,9.71.29,19.46-2,29.22-2.61,15.3-.88,18.89,2.84,18.89,18.46,0,34.47,0,68.93,0,104.36,7,.5,12.48,3.21,12.5,9.93,9.19,5.66,23.48-6.14,27.66,10.8h14.79c-.48-4.7-6.21-5.7-5.65-10.8,2.62-5.31,9-2.47,13.24-4.95.2-4.42-6.3-4.59-5.78-9.39,2.93-4.95,9.49-2.29,13.3-5.72,1.76-5.44-5.76-6-5.61-10.52,13.8-6.78,12.67-20.15,13.14-31.92,1.64-42.27,2.14-84.58,3.71-126.85.57-15.42-.94-31.32,6.68-47.44a56.12,56.12,0,0,1,6.64,26.05q2.11,75.16,4.45,150.31a72.61,72.61,0,0,0,1.53,14c1.51,6.68,3.24,13.57,11.27,14.92.29,5.27-5.92,6-5.44,11.45,3.33,3.55,10.58.85,13.62,6-.45,4.11-4.82,5.08-6.39,8.35,4,3.57,10.35.71,13.45,5.36,1.25,5.2-4.91,6.62-6,11.31h18.15c0-8.1.42-15.85-.11-23.53-.53-7.92,2.15-11.62,10.47-11.4,5.33.14,10.7-1,15.78-1.49,3.6,4.79.55,10.4,5,14.64,0-8.78.5-17.6-.16-26.34-.62-8.22,3.19-11.7,10.6-11.87,11.75-.27,23.51-.35,35.25,0,6.9.2,10.42,3.78,9.93,11.39-.57,8.92-.13,17.89-.13,28.65,3.82-4.57,2.6-8.26,2.62-11.53.09-34.87.42-69.75-.18-104.61-.18-9.89,3.29-13.07,12.57-13.28,14-.31,28-1.48,44.34-2.42V460.73l5.52.1c1.8-28.83-.11-57.88,1-87.63,15.8-2.17,31.11-4.28,46.75-3.63,7.42.31,10.08,3.16,10,10.82-.45,25.07-.23,50.15-.11,75.23,0,4-1.07,8.33,2.59,13.88,2.82-6.56,1.52-11.88,1.91-16.92.5-6.59-2.48-14.12,6.84-17.86,3.47-1.38,1.73-6.42,1.74-9.79.11-36.83,0-73.66.13-110.49,0-17.86,4.55-22.33,21.73-22.32q14.1,0,28.21.05a4.82,4.82,0,0,1,1.26.15h-.08c13.61,11.92,10.54,27.26,10.58,41.78.14,37.17,0,74.35,0,111.15,5.12,3.85,10.73.49,15.63,3.29,3.38,5.38,0,12.07,2.48,18.27,4,2.69,8.69,1.13,13.15,1.08,7.87-15.2,9.55-30.66,3.27-47.71,5.57-3.62,9.64-8.89,7.59-16.75.12-1.39.25-2.78.37-4.16,1.15-3.65-3.25-8.64,3.61-11.64,2.21,6.08,10.5,8.75,7.84,17.77-.54,1.87,2.77-1,4.44-.83l1,.91c6.88,7.45,15.89,7.17,25,7.09,8.78-.07,18.18-2,24.83,8.13-4.41,6.59-1.86,15.5-3.7,23.53C1131.67,453.05,1141.92,459.34,1137.43,468.62Z" transform="translate(-85.23 -220.1)"/><path d="M187.07,256.38l-1,.87c-5.9-3.15-7.83-8.56-6.4-15.18-14.16,14.25-11.06,33-16.75,49.07-5,14-2,30.89-2.19,46.51-.23,16-.88,32.08.19,48,.83,12.34-3.49,17.38-15.64,19-18.68,2.49-21.19,1.53-20.17-16.65.71-12.32-3.93-23.63-4.56-35.61-.26-5.16-4.92-6.51-8.87-8.19l-.57-.61c-.05-3-.73-6.12,1.64-9,13.86,15.19,16,33.17,15.29,52.32-.22,5.74-4.51,15.3,7.93,15.49,16.53.26,21.71-3.59,21.83-16.68.18-22.32.75-44.65.37-67-.14-9.07-4.55-19.42.38-26.89,7.44-11.27,2.59-24.8,9.13-35.35,4.87-7.85,6.45-16.16,7.33-24.92.25-2.56-.63-5.66,3.72-7.23C181.6,235.14,181.68,246.53,187.07,256.38Z" transform="translate(-85.23 -220.1)"/><path d="M248.2,345.67c-.33.36-.65.72-1,1.07-8-3.11-11.54.91-12.7,8.28-2,13.05-4.7,26.09-3.25,39.39,1,9.28-3.8,11.9-11.81,11.09a129.59,129.59,0,0,1-16.21-2.43c-4.31-1-7.85-3.25-7.81-8.68.09-29.23,0-58.45.25-87.68,0-5.58-1.53-13.66-3-15.62-7.94-10.72-1.85-23.26-6.62-33.84l1-.87c.32.22.85.37.94.67,5.37,15.24,9.48,31.41,11,46.86,1.08,11.07-.11,23.73-.44,35.66-.39,14.05-.1,28.12-.1,42.19,0,17.88,0,17.94,17.41,20.37,3,.42,6.14.06,10.89.06,2.56-23.18-2.94-48.28,16-67.23C244.52,338.42,246.37,342,248.2,345.67Z" transform="translate(-85.23 -220.1)"/><path d="M1067.68,364.44c6.34-6.36,15.56-9.15,19.58-17.12,6.06,1.78,3.19,6.61,5.36,9.47,3.55-3.5,6.86-7.84,12.68-4.27,7.56,4.63,12.73,10.69,11.39,20.53,8.15,1,16.11,1,22.08,9.25-6.49,1.1-6.91,7.27-10.7,11.06-5.73-2.5.37-8.74-4.16-11.16-2-1.31-3.42.13-4.87,1.38-6.46,5.6-10.89,13.94-22,12.57-4.75-.59-4.84,7.58-9.51,9.32l-1-.91c2.46-5.08,3.72-11.36,10.89-12.06,9.1-.88,14.5-7.36,21.71-13.78-4.52-2-6.74-5.49-6.73-9.77,0-7.23-3.74-12.22-10.23-13.34-9-1.55-3.82,8.16-7.48,11.46-4.9-1.49-3.88-8.73-9.47-9.32l-16.74,7.54Z" transform="translate(-85.23 -220.1)"/><path d="M111.69,344.22c-8.07,11.65-9,25.32-9.19,38.56-.4,29.6.38,59.23-1.49,88.57-4.61,2.69-8.8,1.78-15.78.94l11.5-3.2c.23-2,.51-4.27.77-6.53,3.85-32.23-.18-64.69,2.86-96.91.76-8.15-.61-18.55,10.76-22Z" transform="translate(-85.23 -220.1)"/><path d="M177.49,341.23c-3.74,6.21-6.06,49.26-3.43,54.28,1.67,3.2,4.18,2.72,6.82,1.58C184.13,376.91,182.65,348,177.49,341.23Zm1.26,51.3h-1.18V348.69h1.18Z" transform="translate(-85.23 -220.1)"/><path d="M113.62,397.78c-7.25.35-3.38-6.14-5-8.86,1.07-4.64-1.84-11.42,5.14-11.29,5.63.11,4.43,6.28,4.25,10.23C117.83,391.58,120.21,397.46,113.62,397.78Z" transform="translate(-85.23 -220.1)"/><path d="M246.43,395.92c-.2,2-2.89,2.18-4.87,2-1.67-.14-3.14-1.06-3.11-2.74.16-6.15-2.52-12.88,3.06-18.69C250.68,381.6,247.12,389.24,246.43,395.92Z" transform="translate(-85.23 -220.1)"/><path d="M1070.67,399.26l-.36,4.16c-7-5.32-9.87-11.63-4.06-19.49,2.23-3,2.1-5.05-.38-7.95-3.54-4.16-3.23-8.39,1.81-11.54l.84.85c-1.33,8.65,9,18-1.83,26.4C1065.47,392.64,1067.74,397.46,1070.67,399.26Z" transform="translate(-85.23 -220.1)"/><path d="M1070.67,399.26c-2.93-1.8-5.2-6.62-4-7.57,10.87-8.37.5-17.75,1.83-26.4l16.74-7.54c5.59.59,4.57,7.83,9.47,9.32,3.66-3.3-1.53-13,7.48-11.46,6.49,1.12,10.24,6.11,10.23,13.34,0,4.28,2.21,7.74,6.73,9.77-7.21,6.42-12.61,12.9-21.71,13.78-7.17.7-8.43,7-10.89,12.06-1.67-.17-5,2.7-4.43.84,2.65-9-5.64-11.7-7.86-17.78C1067.43,390.62,1071.82,395.62,1070.67,399.26Z" transform="translate(-85.23 -220.1)"/><ellipse cx="92.94" cy="150.51" rx="0.84" ry="31"/><path d="M1130.8,426.78c.82-7.4-1.16-10.18-7.8-10.27-15.24-.21-30.49-.11-45.74-.18-4.9,0-9.44,2.16-8.49,7.08a76.3,76.3,0,0,1-5.34,47.12c-6.37,1.46-13.17,1.05-20.69.06-.37-6.27-.7-12-1-17.6-17.28-4.42-17.28-4.42-17.28-23.33q0-55.85,0-111.67c0-17.08-5-22.05-22-22.11-8.2,0-16.4,0-23.1,0-12.48,10.43-9.74,23.56-9.79,35.95-.1,31.74,0,63.48,0,95.21,0,5-.29,9-5.05,13.15-6.33,5.56-2.36,14.71-2.74,22.25-.36,7.1-2.42,10.5-11.58,7.59V421.65c0-12.54-.55-25.11.19-37.6.49-8.31-3-11.83-10.49-11.52C928.1,373,916.39,374,904.7,375c-7.27.63-5.5,6.43-5.52,10.78-.11,25.44,0,50.87,0,75.69-3.43,3.94-7,2.35-11.57,2.37V321.27c-17.1-2.7-32.73,1.05-48.32,1.78-2.79,4.33-1.63,8.75-1.64,12.92-.11,34.87,0,69.74-.16,104.61,0,4.13,2.35,10.83-5.11,10.8-6.77,0-4.26-6.28-4.34-10-.64-29.8-.56-29.87-30.64-29.67-5.75,0-11.71-1.2-18.41,2.06,0,8.94.2,18.25-.09,27.55-.12,3.83,2.09,9.87-4.56,10.1-7,.24-4.12-6-4.85-9.71-.29-1.5-.27-3.07-.45-5.25-6.61-1.83-12.92-.88-20.8,1.57,0,7.4-.45,15.12.12,22.76.62,8.23-2.43,11.72-10.67,10.6-1.52-.21-3.15.17-4.69-.08-3.64-.6-8.33,2-10.76-2.27-3.15-5.58,4-6.54,5.81-11.12-3-2.3-8.21-.36-11.54-2.06a5.2,5.2,0,0,1-.82-.53,4.4,4.4,0,0,1-1-1.18,7.2,7.2,0,0,1-1-2.42,3.4,3.4,0,0,1,.15-1.13c0-.1.06-.2.09-.3.53-1.34,1.82-2.17,3-3.08.18-.13.33-.26.49-.4a4,4,0,0,0,1.71-3.47c-10.57-2.2-13.63-4.21-11-10.07a42,42,0,0,1,3.55-6,10.74,10.74,0,0,1-5.87-3.33,9.92,9.92,0,0,1-.8-1,5.33,5.33,0,0,1-.33-.55,13.77,13.77,0,0,1-1.42-3.66A5.42,5.42,0,0,1,703,418a19.31,19.31,0,0,1-.36-2c-.35-2.23-.5-4.48-.88-6.49-2-10.3-2.06-21-2.35-31.55q-1.79-65.77-3.16-131.56c-.11-4.75-.62-9.32-3-13.76-3.34,4-3.26,8.54-3.39,13.16q-2.16,76.34-4.47,152.66c-.32,10.19-.25,20.76-9.51,28.1-.49.39-.53,2.13-.1,2.78,7.21,10.77-.23,12.5-8.46,13.73,7.34,11.81,6.85,12.61-8.72,14.38,2.08,3.92,4.14,7.8,8,14.92-12.1-3.79-24.63,6.76-28-10.85H614c-1.33-5.4-2.54-9.81-9.66-10.61-5-.56-3.13-7.24-3.14-11.26-.17-32.91-.56-65.83.16-98.73.23-10.19-4.15-13.81-12.72-13.41-13.62.63-27.19,2.25-41.88,3.54V470.69c-4.74,3.32-8.43,2.64-13.76.78,4-20.49-7.71-39.53-5.92-60.71,1.65-19.41.36-39.08.36-59.34-11.83-3.63-23.49-2.36-36.81-3.6V450.61c-6.32,2.24-10.91,1.71-15.56.92-3.16-4.27-1.25-9.14-1.79-13.67-.94-8,3.11-17.09-6.08-23.42-1.81-1.25-1-6.65-1-10.13-.06-35.62-.05-71.24-.05-108.26-15.38-1.07-30.09-2.66-44.82-2.88-7.83-.12-11.83,3.95-11.73,13.45.6,50.53.29,101.08.29,151.63v12.32c-4.58,3.68-8.75,2.55-13.48,1.72-3.08-13.29.61-27.1-2.33-41.37H346.31c1.76-26.37-2.91-51-10.67-75.76-14.65,35.53-9.27,72.63-10.57,108.63-15.53,3.78-16.2,3.26-16.24-11.51,0-6.66-.72-13.42.16-20,1.31-9.62-3.68-12.47-11.76-13-2.35-.15-4.71-.19-7.05-.13-17.3.38-20.17,1.77-17.87,18.51,1.81,13.19-6.79,21-10.13,31.45-.72,2.25-3.06,2.2-5,1.66-3-.86-2.49-3.57-2.59-5.8q-1-19.29-1.92-38.57c-1.17-23.61,3.37-47.46-3-70.84q-1.22-4.45-2.48-8.89c-8-3.11-11.54.91-12.7,8.28-2,13.05-4.7,26.09-3.25,39.39,1,9.28-3.8,11.9-11.81,11.09a129.59,129.59,0,0,1-16.21-2.43c-4.31-1-7.85-3.25-7.81-8.68.09-29.23,0-58.45.25-87.68,0-5.58-1.53-13.66-3-15.62-7.94-10.72-1.85-23.26-6.62-33.84-5.9-3.15-7.83-8.56-6.4-15.18-14.16,14.25-11.06,33-16.75,49.07-5,14-2,30.89-2.19,46.51-.23,16-.88,32.08.19,48,.83,12.34-3.49,17.38-15.64,19-18.68,2.49-21.19,1.53-20.17-16.65.71-12.32-3.93-23.63-4.56-35.61-.26-5.16-4.92-6.51-8.87-8.19-8.07,11.65-9,25.32-9.19,38.56-.4,29.6.38,59.23-1.49,88.57-4.61,2.69-8.8,1.78-15.78.94l28.21,5.94H484.11l296-.67h257.33l96.33-15.41C1128.58,450.66,1129.49,438.56,1130.8,426.78Z" transform="translate(-85.23 -220.1)"/><polygon points="1052.21 241.46 1052.21 248.52 981.13 261.46 26.47 261.46 2.1 252.92 0 252.19 28.22 258.13 398.88 258.13 694.88 257.46 952.22 257.46 1048.55 242.05 1052.21 241.46"/></svg>